<svg width="25" height="25" viewBox="0 0 25 25" fill="none" xmlns="http://www.w3.org/2000/svg">
<path d="M21.2188 1.5625H3.78125C3.19343 1.56456 2.63028 1.79898 2.21463 2.21463C1.79898 2.63028 1.56456 3.19343 1.5625 3.78125V14.9688C1.56456 15.5566 1.79898 16.1197 2.21463 16.5354C2.63028 16.951 3.19343 17.1854 3.78125 17.1875H8.59375C8.80095 17.1875 8.99966 17.1052 9.14618 16.9587C9.29269 16.8122 9.375 16.6135 9.375 16.4062C9.375 16.199 9.29269 16.0003 9.14618 15.8538C8.99966 15.7073 8.80095 15.625 8.59375 15.625H3.78125C3.60783 15.623 3.44209 15.5532 3.31945 15.4305C3.19682 15.3079 3.12703 15.1422 3.125 14.9688V3.78125C3.12703 3.60783 3.19682 3.44209 3.31945 3.31945C3.44209 3.19682 3.60783 3.12703 3.78125 3.125H21.2188C21.3922 3.12703 21.5579 3.19682 21.6805 3.31945C21.8032 3.44209 21.873 3.60783 21.875 3.78125V14.9688C21.873 15.1422 21.8032 15.3079 21.6805 15.4305C21.5579 15.5532 21.3922 15.623 21.2188 15.625H20.3125V14.9141C20.3104 14.4816 20.1378 14.0675 19.832 13.7618C19.5262 13.456 19.1121 13.2833 18.6797 13.2812H15.6953C15.2629 13.2833 14.8488 13.456 14.543 13.7618C14.2372 14.0675 14.0646 14.4816 14.0625 14.9141V15.625H12.5C12.2928 15.625 12.0941 15.7073 11.9476 15.8538C11.8011 16.0003 11.7188 16.199 11.7188 16.4062V18.8906C11.1975 19.0749 10.7582 19.4376 10.4784 19.9144C10.1987 20.3913 10.0965 20.9517 10.19 21.4967C10.2835 22.0416 10.5666 22.5359 10.9893 22.8923C11.412 23.2486 11.9471 23.4441 12.5 23.4441C13.0529 23.4441 13.588 23.2486 14.0107 22.8923C14.4334 22.5359 14.7165 22.0416 14.81 21.4967C14.9035 20.9517 14.8013 20.3913 14.5216 19.9144C14.2418 19.4376 13.8025 19.0749 13.2812 18.8906V17.1875H21.2188C21.8066 17.1854 22.3697 16.951 22.7854 16.5354C23.201 16.1197 23.4354 15.5566 23.4375 14.9688V3.78125C23.4354 3.19343 23.201 2.63028 22.7854 2.21463C22.3697 1.79898 21.8066 1.56456 21.2188 1.5625ZM12.5 21.875C12.3455 21.875 12.1944 21.8292 12.066 21.7433C11.9375 21.6575 11.8373 21.5355 11.7782 21.3927C11.7191 21.25 11.7036 21.0929 11.7338 20.9413C11.7639 20.7898 11.8383 20.6506 11.9476 20.5413C12.0568 20.4321 12.196 20.3577 12.3476 20.3275C12.4991 20.2974 12.6562 20.3128 12.799 20.372C12.9417 20.4311 13.0637 20.5312 13.1496 20.6597C13.2354 20.7882 13.2812 20.9392 13.2812 21.0938C13.2812 21.301 13.1989 21.4997 13.0524 21.6462C12.9059 21.7927 12.7072 21.875 12.5 21.875ZM15.625 15.625V14.9141C15.625 14.8954 15.6324 14.8775 15.6456 14.8643C15.6588 14.8512 15.6767 14.8438 15.6953 14.8438H18.6797C18.6983 14.8438 18.7162 14.8512 18.7294 14.8643C18.7426 14.8775 18.75 14.8954 18.75 14.9141V15.625H15.625Z" fill="#B7C6EB"/>
</svg>
