<svg width="25" height="25" viewBox="0 0 25 25" fill="none" xmlns="http://www.w3.org/2000/svg">
<path d="M21.6562 3.125H3.34375C3.10983 3.125 2.87821 3.17107 2.6621 3.26059C2.44598 3.35011 2.24962 3.48131 2.08422 3.64672C1.75017 3.98077 1.5625 4.43383 1.5625 4.90625V15.4062C1.5625 15.8787 1.75017 16.3317 2.08422 16.6658C2.24962 16.8312 2.44598 16.9624 2.6621 17.0519C2.87821 17.1414 3.10983 17.1875 3.34375 17.1875H10.9375C11.1447 17.1875 11.3434 17.1052 11.4899 16.9587C11.6364 16.8122 11.7188 16.6135 11.7188 16.4062C11.7188 16.199 11.6364 16.0003 11.4899 15.8538C11.3434 15.7073 11.1447 15.625 10.9375 15.625H3.34375C3.31473 15.6261 3.28579 15.6212 3.25876 15.6106C3.23172 15.6 3.20717 15.5839 3.18663 15.5634C3.1661 15.5428 3.15002 15.5183 3.13942 15.4912C3.12881 15.4642 3.1239 15.4353 3.125 15.4062V4.90625C3.1239 4.87723 3.12881 4.84829 3.13942 4.82126C3.15002 4.79422 3.1661 4.76967 3.18663 4.74913C3.20717 4.7286 3.23172 4.71252 3.25876 4.70192C3.28579 4.69131 3.31473 4.6864 3.34375 4.6875H21.6562C21.6853 4.6864 21.7142 4.69131 21.7412 4.70192C21.7683 4.71252 21.7928 4.7286 21.8134 4.74913C21.8339 4.76967 21.85 4.79422 21.8606 4.82126C21.8712 4.84829 21.8761 4.87723 21.875 4.90625V15.4062C21.8761 15.4353 21.8712 15.4642 21.8606 15.4912C21.85 15.5183 21.8339 15.5428 21.8134 15.5634C21.7928 15.5839 21.7683 15.6 21.7412 15.6106C21.7142 15.6212 21.6853 15.6261 21.6562 15.625C21.449 15.625 21.2503 15.7073 21.1038 15.8538C20.9573 16.0003 20.875 16.199 20.875 16.4062C20.875 16.6135 20.9573 16.8122 21.1038 16.9587C21.2503 17.1052 21.449 17.1875 21.6562 17.1875C22.1287 17.1875 22.5817 16.9998 22.9158 16.6658C23.2498 16.3317 23.4375 15.8787 23.4375 15.4062V4.90625C23.4375 4.43383 23.2498 3.98077 22.9158 3.64672C22.5817 3.31267 22.1287 3.125 21.6562 3.125Z" fill="#B7C6EB"/>
<path d="M16.4062 7.8125C15.3702 7.8125 14.3767 8.22405 13.6441 8.95661C12.9115 9.68918 12.5 10.6827 12.5 11.7187C12.496 12.5646 12.7705 13.3882 13.2812 14.0625V21.0937C13.2816 21.2351 13.3203 21.3737 13.3932 21.4947C13.4662 21.6158 13.5705 21.7148 13.6953 21.7812C13.8175 21.844 13.954 21.8734 14.0912 21.8665C14.2283 21.8597 14.3612 21.8168 14.4765 21.7422L16.4062 20.4688L18.3203 21.7422C18.4378 21.8196 18.574 21.8638 18.7146 21.8702C18.8551 21.8765 18.9948 21.8449 19.1188 21.7784C19.2428 21.712 19.3466 21.6134 19.4192 21.4928C19.4918 21.3723 19.5305 21.2344 19.5312 21.0937V14.0625C20.0419 13.3882 20.3165 12.5646 20.3125 11.7187C20.3125 10.6827 19.9009 9.68918 19.1684 8.95661C18.4358 8.22405 17.4422 7.8125 16.4062 7.8125ZM16.4062 9.375C16.8698 9.375 17.3229 9.51246 17.7083 9.76999C18.0938 10.0275 18.3942 10.3936 18.5716 10.8218C18.749 11.2501 18.7954 11.7213 18.7049 12.176C18.6145 12.6306 18.3913 13.0483 18.0635 13.376C17.7357 13.7038 17.3181 13.927 16.8635 14.0175C16.4088 14.1079 15.9376 14.0615 15.5093 13.8841C15.0811 13.7067 14.715 13.4063 14.4575 13.0209C14.1999 12.6354 14.0625 12.1823 14.0625 11.7187C14.0625 11.0971 14.3094 10.501 14.749 10.0615C15.1885 9.62193 15.7846 9.375 16.4062 9.375ZM16.8359 18.8828C16.7084 18.7988 16.559 18.754 16.4062 18.754C16.2535 18.754 16.1041 18.7988 15.9765 18.8828L14.8437 19.6641V15.2969C15.3366 15.512 15.8685 15.623 16.4062 15.623C16.944 15.623 17.4759 15.512 17.9687 15.2969V19.6328L16.8359 18.8828Z" fill="#B7C6EB"/>
<path d="M10.1562 6.25H5.46875C5.26155 6.25 5.06284 6.33231 4.91632 6.47882C4.76981 6.62534 4.6875 6.82405 4.6875 7.03125C4.6875 7.23845 4.76981 7.43716 4.91632 7.58368C5.06284 7.73019 5.26155 7.8125 5.46875 7.8125H10.1562C10.3635 7.8125 10.5622 7.73019 10.7087 7.58368C10.8552 7.43716 10.9375 7.23845 10.9375 7.03125C10.9375 6.82405 10.8552 6.62534 10.7087 6.47882C10.5622 6.33231 10.3635 6.25 10.1562 6.25Z" fill="#B7C6EB"/>
<path d="M10.1562 9.375H5.46875C5.26155 9.375 5.06284 9.45731 4.91632 9.60382C4.76981 9.75034 4.6875 9.94905 4.6875 10.1562C4.6875 10.3635 4.76981 10.5622 4.91632 10.7087C5.06284 10.8552 5.26155 10.9375 5.46875 10.9375H10.1562C10.3635 10.9375 10.5622 10.8552 10.7087 10.7087C10.8552 10.5622 10.9375 10.3635 10.9375 10.1562C10.9375 9.94905 10.8552 9.75034 10.7087 9.60382C10.5622 9.45731 10.3635 9.375 10.1562 9.375Z" fill="#B7C6EB"/>
</svg>
