<svg width="510" height="486" viewBox="0 0 510 486" fill="none" xmlns="http://www.w3.org/2000/svg">
<path fill-rule="evenodd" clip-rule="evenodd" d="M28.2787 307.628L0 256.085H89.632L108.019 355.12L12.0933 355.129L28.2787 307.628Z" fill="#F2F2F2"/>
<path fill-rule="evenodd" clip-rule="evenodd" d="M96.9866 346.204L81.9106 265.003H15.3386L38.276 306.808L24.8493 346.211L96.9866 346.204Z" fill="#2A3965"/>
<path fill-rule="evenodd" clip-rule="evenodd" d="M481.499 307.629L497.684 355.129H406.684L407.479 345.501C408.941 327.813 410.576 310.008 412.999 292.416C414.312 282.881 415.919 271.236 419.132 262.128L421.263 256.087H509.777L481.499 307.629Z" fill="#F2F2F2"/>
<path fill-rule="evenodd" clip-rule="evenodd" d="M416.68 346.211C420.241 303.121 423.971 276.052 427.868 265.004H494.439L471.503 306.809L484.928 346.211H416.68Z" fill="#2A3965"/>
<path fill-rule="evenodd" clip-rule="evenodd" d="M70.9481 300.585L68.0454 74.096L87.0427 68.428C98.7561 64.932 110.315 60.92 121.827 56.8147C136.58 51.552 151.241 46.0347 165.824 40.316C180.416 34.5947 194.935 28.6774 209.305 22.4147C220.285 17.6281 231.276 12.7213 241.825 7.03867L254.887 0L267.951 7.03601C278.501 12.7187 289.493 17.6254 300.473 22.412C314.844 28.6747 329.363 34.592 343.955 40.3147C358.537 46.032 373.2 51.5507 387.953 56.8134C399.464 60.92 411.023 64.932 422.736 68.428L441.732 74.096L438.831 300.585C438.412 333.287 428.507 363.024 408.581 389.021C373.761 434.461 317.657 457.928 266.736 480.235L254.888 485.421L243.041 480.235C221.469 470.781 199.816 461.515 179 450.461C118.337 418.235 71.8827 373.505 70.9481 300.585Z" fill="#2A3965"/>
<path fill-rule="evenodd" clip-rule="evenodd" d="M85.2359 300.403L82.4719 84.7025L91.1279 82.1185C103.051 78.5612 114.909 74.4518 126.627 70.2719C141.516 64.9625 156.324 59.3892 171.04 53.6185C185.792 47.8332 200.488 41.8439 215.013 35.5132C226.281 30.6012 237.779 25.4479 248.603 19.6172L254.888 16.2305L261.173 19.6159C271.999 25.4465 283.496 30.5985 294.765 35.5105C309.291 41.8412 323.987 47.8319 338.739 53.6159C353.455 59.3879 368.263 64.9612 383.152 70.2719C394.869 74.4518 406.728 78.5612 418.649 82.1185L427.307 84.7025L424.543 300.403C424.163 330.044 415.288 356.781 397.24 380.335C364.393 423.195 309.099 446.075 261.003 467.141L254.888 469.821L248.775 467.141C227.521 457.835 206.216 448.741 185.704 437.848C130.023 408.261 86.0999 367.897 85.2359 300.403Z" fill="#F2F2F2"/>
<path fill-rule="evenodd" clip-rule="evenodd" d="M97.1973 300.249L94.5493 93.5826C132.884 82.1426 219.081 49 254.277 30.1493L254.889 29.82L255.5 30.1493C290.696 49 376.893 82.1426 415.228 93.5826L412.581 300.249C411.411 391.568 323.368 426.768 256.203 456.181L254.889 456.768L253.576 456.181C186.409 426.768 98.368 391.568 97.1973 300.249Z" fill="#1194CF"/>
<path fill-rule="evenodd" clip-rule="evenodd" d="M51.1226 234.829H458.656V331.888H51.1226V234.829Z" fill="#F2F2F2"/>
<path fill-rule="evenodd" clip-rule="evenodd" d="M61.1919 244.899H448.587V321.819H61.1919V244.899Z" fill="#B7BEEA"/>
<path fill-rule="evenodd" clip-rule="evenodd" d="M76.6333 262.043V294.459C76.6333 301.269 81.2453 305.163 90.14 305.163C99.0346 305.163 103.647 301.269 103.647 294.459V262.043H95.0813V294.884C95.0813 297.925 93.2693 299.02 90.3866 299.02C87.504 299.02 85.6933 297.925 85.6933 294.884V262.043H76.6333ZM137.092 304.615H146.399V262.043H138.328V287.525H138.163L129.02 262.043H117.655V304.615H125.808V273.78H125.972L137.092 304.615ZM160.817 304.615H169.877V262.043H160.817V304.615ZM191.133 262.043H181.991L190.885 304.615H204.393L213.288 262.043H204.969L198.133 296.769H197.969L191.133 262.043ZM234.46 268.124H250.109V262.043H225.401V304.615H250.109V298.533H234.46V286.065H246.897V279.984H234.46V268.124ZM291.791 304.615C290.884 303.035 290.803 301.513 290.803 299.445V292.877C290.803 288.437 289.319 285.275 284.789 283.877V283.755C288.825 282.356 290.72 279.557 290.72 275.179V271.833C290.72 265.265 286.684 262.043 277.295 262.043H263.623V304.615H272.681V287.281H275.812C279.931 287.281 281.743 288.741 281.743 292.695V299.384C281.743 302.852 282.072 303.52 282.565 304.615H291.791ZM277.047 268.124C280.259 268.124 281.66 269.463 281.66 272.503V276.7C281.66 280.105 279.6 281.2 276.224 281.2H272.681V268.124H277.047ZM303.491 272.26C303.491 277.125 305.88 280.653 313.457 285.579C319.388 289.411 321.199 291.721 321.199 294.823C321.199 297.865 319.388 298.959 316.504 298.959C313.621 298.959 311.809 297.865 311.809 294.823V291.783H303.244V294.397C303.244 301.209 307.856 305.101 316.751 305.101C325.647 305.101 330.259 301.209 330.259 294.397C330.259 289.532 327.871 286.005 320.293 281.079C314.363 277.247 312.551 274.935 312.551 271.833C312.551 268.793 314.197 267.637 317.081 267.637C319.964 267.637 321.611 268.793 321.611 271.833V273.599H330.176V272.26C330.176 265.448 325.647 261.555 316.833 261.555C308.021 261.555 303.491 265.448 303.491 272.26ZM343.36 304.615H352.419V262.043H343.36V304.615ZM364.285 268.124H373.757V304.615H382.817V268.124H392.289V262.043H364.285V268.124ZM412.637 304.615H421.697V290.505L433.145 262.043H424.497L417.661 281.443H417.497L410.661 262.043H401.189L412.637 290.505V304.615Z" fill="#2A3965"/>
<path fill-rule="evenodd" clip-rule="evenodd" d="M232.939 419.954H230.7V405.701C230.163 406.221 229.455 406.741 228.581 407.248C227.708 407.754 226.92 408.141 226.224 408.395V406.234C227.475 405.648 228.568 404.941 229.505 404.101C230.443 403.261 231.108 402.461 231.497 401.674H232.939V419.954ZM239.02 415.728L241.156 415.554C241.339 416.568 241.687 417.288 242.199 417.741C242.712 418.194 243.369 418.434 244.175 418.434C244.861 418.434 245.463 418.274 245.984 417.954C246.505 417.634 246.929 417.221 247.255 416.688C247.583 416.168 247.857 415.448 248.083 414.554C248.307 413.661 248.416 412.754 248.416 411.821C248.416 411.728 248.413 411.568 248.404 411.381C247.959 412.088 247.349 412.674 246.577 413.114C245.805 413.554 244.967 413.781 244.068 413.781C242.564 413.781 241.292 413.235 240.249 412.128C239.211 411.048 238.691 409.608 238.691 407.821C238.691 405.968 239.232 404.488 240.321 403.354C241.407 402.234 242.768 401.674 244.408 401.674C245.585 401.674 246.667 401.981 247.649 402.621C248.629 403.261 249.371 404.168 249.879 405.354C250.388 406.528 250.643 408.234 250.643 410.474C250.643 412.794 250.392 414.648 249.888 416.034C249.384 417.408 248.629 418.461 247.633 419.181C246.637 419.901 245.472 420.261 244.132 420.261C242.708 420.261 241.547 419.861 240.644 419.074C239.745 418.274 239.203 417.168 239.02 415.728ZM248.151 407.701C248.151 406.421 247.811 405.408 247.133 404.648C246.459 403.901 245.637 403.528 244.671 403.528C243.669 403.528 242.805 403.928 242.076 404.741C241.343 405.554 240.979 406.594 240.979 407.888C240.979 409.048 241.327 409.981 242.017 410.701C242.712 411.434 243.577 411.795 244.607 411.795C245.64 411.795 246.489 411.434 247.153 410.701C247.82 409.981 248.151 408.981 248.151 407.701ZM261.225 419.954H258.988V405.701C258.449 406.221 257.741 406.741 256.868 407.248C255.996 407.754 255.207 408.141 254.512 408.395V406.234C255.763 405.648 256.856 404.941 257.792 404.101C258.729 403.261 259.395 402.461 259.784 401.674H261.225V419.954ZM267.308 415.728L269.444 415.554C269.627 416.568 269.973 417.288 270.487 417.741C270.999 418.194 271.656 418.434 272.461 418.434C273.148 418.434 273.751 418.274 274.272 417.954C274.793 417.634 275.216 417.221 275.543 416.688C275.869 416.168 276.144 415.448 276.369 414.554C276.595 413.661 276.704 412.754 276.704 411.821C276.704 411.728 276.7 411.568 276.692 411.381C276.247 412.088 275.637 412.674 274.865 413.114C274.093 413.554 273.253 413.781 272.356 413.781C270.851 413.781 269.58 413.235 268.537 412.128C267.499 411.048 266.977 409.608 266.977 407.821C266.977 405.968 267.52 404.488 268.609 403.354C269.693 402.234 271.055 401.674 272.695 401.674C273.873 401.674 274.953 401.981 275.937 402.621C276.916 403.261 277.659 404.168 278.167 405.354C278.675 406.528 278.929 408.234 278.929 410.474C278.929 412.794 278.68 414.648 278.175 416.034C277.671 417.408 276.916 418.461 275.92 419.181C274.924 419.901 273.759 420.261 272.419 420.261C270.995 420.261 269.833 419.861 268.931 419.074C268.032 418.274 267.491 417.168 267.308 415.728ZM276.437 407.701C276.437 406.421 276.099 405.408 275.42 404.648C274.747 403.901 273.924 403.528 272.957 403.528C271.957 403.528 271.092 403.928 270.363 404.741C269.631 405.554 269.267 406.594 269.267 407.888C269.267 409.048 269.613 409.981 270.304 410.701C270.999 411.434 271.864 411.795 272.893 411.795C273.928 411.795 274.776 411.434 275.441 410.701C276.107 409.981 276.437 408.981 276.437 407.701Z" fill="#F2F2F2"/>
<path fill-rule="evenodd" clip-rule="evenodd" d="M164.499 379.553H345.279V382.544H164.499V379.553Z" fill="#F2F2F2"/>
<path fill-rule="evenodd" clip-rule="evenodd" d="M325.997 202.189C296.144 205.768 266.295 212.037 254.587 222.471C270.78 213.644 302.817 208.997 331.984 208.048C331.984 208.048 344.955 170.34 370.896 94.9253C349.361 96.9813 325.844 105.095 300.341 119.263C322.063 111.823 341.305 107.317 358.068 105.741C336.688 170.04 325.997 202.189 325.997 202.189Z" fill="#F2F2F2"/>
<path fill-rule="evenodd" clip-rule="evenodd" d="M338.325 209.763C312.851 212.529 281.44 212.065 264.671 221.824C281.205 215.188 315.108 215.451 344.147 215.067C344.147 215.067 358.151 182.747 386.159 118.108C379.063 118.445 371.736 119.345 364.176 120.808L361.644 127.923C365.565 127.516 369.363 127.228 373.039 127.057C349.896 182.195 338.325 209.763 338.325 209.763Z" fill="#F2F2F2"/>
<path fill-rule="evenodd" clip-rule="evenodd" d="M346.908 220.585C330.767 218.615 300.973 213.873 273.188 222.245C298.179 217.556 329.415 223.568 352.336 226.332C352.336 226.332 368.593 195.208 401.108 132.957C394.997 132.765 388.684 132.977 382.168 133.589L378.972 140.76C381.849 140.729 384.656 140.759 387.391 140.848C360.401 194.005 346.908 220.585 346.908 220.585Z" fill="#F2F2F2"/>
<path fill-rule="evenodd" clip-rule="evenodd" d="M183.78 202.189C213.635 205.768 243.484 212.037 255.191 222.471C238.999 213.644 206.96 208.997 177.795 208.048C177.795 208.048 164.824 170.34 138.883 94.9253C160.416 96.9813 183.935 105.095 209.437 119.263C187.715 111.823 168.472 107.317 151.711 105.741C173.091 170.04 183.78 202.189 183.78 202.189Z" fill="#F2F2F2"/>
<path fill-rule="evenodd" clip-rule="evenodd" d="M171.452 209.763C196.927 212.529 228.337 212.065 245.108 221.824C228.572 215.188 194.669 215.451 165.631 215.067C165.631 215.067 151.628 182.747 123.62 118.108C130.715 118.445 138.043 119.345 145.603 120.808L148.133 127.923C144.213 127.516 140.416 127.228 136.739 127.057C159.881 182.195 171.452 209.763 171.452 209.763Z" fill="#F2F2F2"/>
<path fill-rule="evenodd" clip-rule="evenodd" d="M162.871 220.585C179.011 218.615 208.804 213.873 236.589 222.245C211.599 217.556 180.363 223.568 157.443 226.332C157.443 226.332 141.184 195.208 108.669 132.957C114.781 132.765 121.095 132.977 127.609 133.589L130.807 140.76C127.928 140.729 125.121 140.759 122.388 140.848C149.376 194.005 162.871 220.585 162.871 220.585Z" fill="#F2F2F2"/>
<path fill-rule="evenodd" clip-rule="evenodd" d="M272.388 93.3119C278.112 80.7265 279.232 63.0732 256.155 53.6078C270.84 71.3158 192.633 87.4425 240.547 114.4C237.683 102.7 248.445 93.8452 256.952 88.3905C264.723 97.6518 264.371 107.818 262.201 114.414C281.128 114.249 291.229 96.3678 280.728 83.6372C280.113 87.2478 279.289 89.2985 272.388 93.3119Z" fill="#F2F2F2"/>
<path fill-rule="evenodd" clip-rule="evenodd" d="M239.144 41.7547C259.856 51.4427 256.432 63.6974 228.872 78.5161C243.821 64.7987 247.245 52.5441 239.144 41.7547Z" fill="#F2F2F2"/>
<path fill-rule="evenodd" clip-rule="evenodd" d="M253.965 224.513C254.2 224.528 254.471 224.532 254.761 224.525C255.055 224.532 255.324 224.528 255.559 224.513V224.481C256.981 224.364 258.639 224.02 259.484 223.413C272.691 212.604 257.341 179.86 263.583 156.288C263.701 155.838 263.828 155.405 263.96 154.985H245.564C245.696 155.405 245.823 155.838 245.943 156.288C252.183 179.86 236.833 212.604 250.039 223.413C250.885 224.02 252.543 224.364 253.965 224.481V224.513ZM265.7 150.796C266.308 149.658 266.972 148.662 267.667 147.776H241.856C242.553 148.662 243.216 149.658 243.824 150.796H265.7ZM270.259 145.026C274.905 140.865 279.845 139.606 279.789 134.109L279.733 128.709H229.791L229.735 134.109C229.679 139.606 234.619 140.865 239.264 145.026H270.259Z" fill="#F2F2F2"/>
<path fill-rule="evenodd" clip-rule="evenodd" d="M227.993 121.331H281.529C282.815 121.331 283.865 122.381 283.865 123.667C283.865 124.951 282.815 126.001 281.529 126.001H227.993C226.709 126.001 225.659 124.951 225.659 123.667C225.659 122.381 226.709 121.331 227.993 121.331Z" fill="#F2F2F2"/>
<path fill-rule="evenodd" clip-rule="evenodd" d="M242.695 147.099H266.829C268.112 147.099 269.164 148.151 269.164 149.433C269.164 150.717 268.112 151.768 266.829 151.768H242.695C241.411 151.768 240.36 150.717 240.36 149.433C240.36 148.151 241.411 147.099 242.695 147.099Z" fill="#F2F2F2"/>
<path d="M121.605 362.814H119L123.744 349.186H126.757L131.507 362.814H128.902L125.303 351.981H125.198L121.605 362.814ZM121.691 357.471H128.796V359.453H121.691V357.471Z" fill="white"/>
<path d="M137.285 351.256V349.186H148.036V351.256H143.871V362.814H141.45V351.256H137.285Z" fill="white"/>
<path d="M150.108 362.814V349.186H155.161C156.196 349.186 157.064 349.368 157.766 349.732C158.472 350.096 159.005 350.606 159.365 351.262C159.729 351.914 159.911 352.675 159.911 353.545C159.911 354.419 159.727 355.177 159.358 355.82C158.994 356.459 158.457 356.954 157.746 357.304C157.036 357.65 156.163 357.823 155.128 357.823H151.529V355.774H154.799C155.404 355.774 155.9 355.689 156.286 355.521C156.672 355.348 156.957 355.097 157.141 354.769C157.33 354.436 157.424 354.028 157.424 353.545C157.424 353.061 157.33 352.649 157.141 352.307C156.953 351.961 156.665 351.699 156.279 351.522C155.893 351.34 155.396 351.249 154.786 351.249H152.549V362.814H150.108ZM157.069 356.639L160.404 362.814H157.681L154.404 356.639H157.069Z" fill="white"/>
<path d="M163.888 362.814H161.283L166.026 349.186H169.04L173.79 362.814H171.184L167.586 351.981H167.48L163.888 362.814ZM163.974 357.471H171.079V359.453H163.974V357.471Z" fill="white"/>
<path d="M180.131 362.814H175.565V349.186H180.223C181.56 349.186 182.71 349.459 183.67 350.005C184.635 350.546 185.376 351.324 185.894 352.34C186.411 353.356 186.67 354.572 186.67 355.987C186.67 357.406 186.409 358.626 185.887 359.646C185.37 360.667 184.622 361.45 183.644 361.995C182.67 362.541 181.499 362.814 180.131 362.814ZM178.005 360.678H180.012C180.951 360.678 181.734 360.505 182.361 360.159C182.988 359.808 183.46 359.287 183.775 358.595C184.091 357.899 184.249 357.029 184.249 355.987C184.249 354.944 184.091 354.079 183.775 353.392C183.46 352.7 182.992 352.183 182.374 351.841C181.76 351.495 180.997 351.322 180.084 351.322H178.005V360.678Z" fill="white"/>
<path d="M191.43 349.186V362.814H188.989V349.186H191.43Z" fill="white"/>
<path d="M193.481 351.256V349.186H204.232V351.256H200.067V362.814H197.646V351.256H193.481Z" fill="white"/>
<path d="M208.745 349.186V362.814H206.304V349.186H208.745Z" fill="white"/>
<path d="M223.428 356C223.428 357.468 223.156 358.726 222.612 359.773C222.073 360.815 221.336 361.614 220.402 362.168C219.472 362.723 218.417 363 217.237 363C216.057 363 215 362.723 214.066 362.168C213.136 361.609 212.399 360.809 211.855 359.766C211.316 358.719 211.046 357.464 211.046 356C211.046 354.532 211.316 353.276 211.855 352.234C212.399 351.187 213.136 350.386 214.066 349.832C215 349.277 216.057 349 217.237 349C218.417 349 219.472 349.277 220.402 349.832C221.336 350.386 222.073 351.187 222.612 352.234C223.156 353.276 223.428 354.532 223.428 356ZM220.974 356C220.974 354.966 220.814 354.095 220.494 353.385C220.178 352.671 219.739 352.132 219.178 351.768C218.617 351.4 217.97 351.216 217.237 351.216C216.505 351.216 215.858 351.4 215.296 351.768C214.735 352.132 214.294 352.671 213.974 353.385C213.658 354.095 213.5 354.966 213.5 356C213.5 357.034 213.658 357.907 213.974 358.622C214.294 359.331 214.735 359.87 215.296 360.239C215.858 360.602 216.505 360.784 217.237 360.784C217.97 360.784 218.617 360.602 219.178 360.239C219.739 359.87 220.178 359.331 220.494 358.622C220.814 357.907 220.974 357.034 220.974 356Z" fill="white"/>
<path d="M236.809 349.186V362.814H234.637L228.288 353.531H228.177V362.814H225.736V349.186H227.92L234.262 358.475H234.381V349.186H236.809Z" fill="white"/>
<path d="M256.104 356C256.104 357.468 255.832 358.726 255.288 359.773C254.748 360.815 254.011 361.614 253.077 362.168C252.147 362.723 251.092 363 249.913 363C248.733 363 247.676 362.723 246.741 362.168C245.812 361.609 245.075 360.809 244.531 359.766C243.991 358.719 243.722 357.464 243.722 356C243.722 354.532 243.991 353.276 244.531 352.234C245.075 351.187 245.812 350.386 246.741 349.832C247.676 349.277 248.733 349 249.913 349C251.092 349 252.147 349.277 253.077 349.832C254.011 350.386 254.748 351.187 255.288 352.234C255.832 353.276 256.104 354.532 256.104 356ZM253.65 356C253.65 354.966 253.49 354.095 253.169 353.385C252.854 352.671 252.415 352.132 251.854 351.768C251.292 351.4 250.645 351.216 249.913 351.216C249.18 351.216 248.533 351.4 247.972 351.768C247.41 352.132 246.97 352.671 246.649 353.385C246.334 354.095 246.176 354.966 246.176 356C246.176 357.034 246.334 357.907 246.649 358.622C246.97 359.331 247.41 359.87 247.972 360.239C248.533 360.602 249.18 360.784 249.913 360.784C250.645 360.784 251.292 360.602 251.854 360.239C252.415 359.87 252.854 359.331 253.169 358.622C253.49 357.907 253.65 357.034 253.65 356Z" fill="white"/>
<path d="M258.411 362.814V349.186H267.043V351.256H260.852V354.955H266.451V357.025H260.852V362.814H258.411Z" fill="white"/>
<path d="M273.863 362.814V349.186H282.626V351.256H276.303V354.955H282.172V357.025H276.303V360.744H282.679V362.814H273.863Z" fill="white"/>
<path d="M287.156 349.186L290.123 354.177H290.228L293.209 349.186H295.992L291.84 356L296.057 362.814H293.228L290.228 357.856H290.123L287.123 362.814H284.307L288.564 356L284.36 349.186H287.156Z" fill="white"/>
<path d="M308.953 353.784H306.492C306.422 353.376 306.292 353.015 306.104 352.7C305.915 352.38 305.681 352.11 305.4 351.888C305.119 351.666 304.799 351.5 304.439 351.389C304.084 351.273 303.7 351.216 303.288 351.216C302.555 351.216 301.906 351.402 301.34 351.775C300.775 352.143 300.332 352.684 300.011 353.398C299.691 354.108 299.531 354.975 299.531 356C299.531 357.042 299.691 357.921 300.011 358.635C300.336 359.345 300.779 359.881 301.34 360.245C301.906 360.605 302.553 360.784 303.281 360.784C303.685 360.784 304.062 360.731 304.413 360.625C304.768 360.514 305.086 360.352 305.367 360.139C305.652 359.926 305.891 359.664 306.084 359.354C306.281 359.043 306.417 358.688 306.492 358.289L308.953 358.302C308.86 358.95 308.661 359.558 308.354 360.125C308.051 360.693 307.654 361.195 307.163 361.629C306.672 362.06 306.097 362.397 305.439 362.641C304.781 362.88 304.051 363 303.248 363C302.064 363 301.007 362.723 300.077 362.168C299.147 361.614 298.415 360.813 297.88 359.766C297.345 358.719 297.077 357.464 297.077 356C297.077 354.532 297.347 353.276 297.886 352.234C298.426 351.187 299.161 350.386 300.09 349.832C301.02 349.277 302.073 349 303.248 349C303.998 349 304.696 349.106 305.341 349.319C305.985 349.532 306.56 349.845 307.064 350.258C307.569 350.666 307.983 351.167 308.308 351.761C308.637 352.351 308.852 353.026 308.953 353.784Z" fill="white"/>
<path d="M311.188 362.814V349.186H319.951V351.256H313.629V354.955H319.497V357.025H313.629V360.744H320.004V362.814H311.188Z" fill="white"/>
<path d="M322.442 362.814V349.186H324.882V360.744H330.817V362.814H322.442Z" fill="white"/>
<path d="M332.935 362.814V349.186H335.376V360.744H341.311V362.814H332.935Z" fill="white"/>
<path d="M343.429 362.814V349.186H352.193V351.256H345.87V354.955H351.739V357.025H345.87V360.744H352.245V362.814H343.429Z" fill="white"/>
<path d="M365.756 349.186V362.814H363.585L357.236 353.531H357.124V362.814H354.683V349.186H356.867L363.21 358.475H363.328V349.186H365.756Z" fill="white"/>
<path d="M379.949 353.784H377.488C377.418 353.376 377.288 353.015 377.1 352.7C376.911 352.38 376.677 352.11 376.396 351.888C376.115 351.666 375.795 351.5 375.435 351.389C375.08 351.273 374.696 351.216 374.284 351.216C373.551 351.216 372.902 351.402 372.336 351.775C371.771 352.143 371.328 352.684 371.007 353.398C370.687 354.108 370.527 354.975 370.527 356C370.527 357.042 370.687 357.921 371.007 358.635C371.332 359.345 371.775 359.881 372.336 360.245C372.902 360.605 373.549 360.784 374.277 360.784C374.681 360.784 375.058 360.731 375.409 360.625C375.764 360.514 376.082 360.352 376.363 360.139C376.648 359.926 376.887 359.664 377.08 359.354C377.277 359.043 377.413 358.688 377.488 358.289L379.949 358.302C379.856 358.95 379.657 359.558 379.35 360.125C379.047 360.693 378.65 361.195 378.159 361.629C377.668 362.06 377.093 362.397 376.435 362.641C375.777 362.88 375.047 363 374.244 363C373.06 363 372.003 362.723 371.073 362.168C370.143 361.614 369.411 360.813 368.876 359.766C368.341 358.719 368.073 357.464 368.073 356C368.073 354.532 368.343 353.276 368.882 352.234C369.422 351.187 370.157 350.386 371.086 349.832C372.016 349.277 373.069 349 374.244 349C374.994 349 375.692 349.106 376.337 349.319C376.981 349.532 377.556 349.845 378.06 350.258C378.565 350.666 378.979 351.167 379.304 351.761C379.633 352.351 379.848 353.026 379.949 353.784Z" fill="white"/>
<path d="M382.184 362.814V349.186H390.947V351.256H384.625V354.955H390.493V357.025H384.625V360.744H391V362.814H382.184Z" fill="white"/>
</svg>
