<svg width="25" height="25" viewBox="0 0 25 25" fill="none" xmlns="http://www.w3.org/2000/svg">
<path d="M23.0547 17.5469C22.7941 17.1856 22.4327 16.9092 22.0159 16.7522C21.599 16.5952 21.1451 16.5645 20.7109 16.6641L15.7578 17.8437C15.4616 17.9064 15.1556 17.9064 14.8594 17.8437L12.4688 17.3828C12.3476 17.3666 12.2361 17.3084 12.1533 17.2186C12.0705 17.1287 12.0218 17.0127 12.0156 16.8906C12.0196 16.8198 12.0375 16.7504 12.0684 16.6866C12.0992 16.6227 12.1424 16.5655 12.1954 16.5183C12.2483 16.4711 12.3101 16.4349 12.3771 16.4116C12.4442 16.3884 12.5151 16.3786 12.5859 16.3828H13.2812C13.7993 16.3828 14.296 16.177 14.6623 15.8108C15.0286 15.4445 15.2344 14.9477 15.2344 14.4297C15.2344 13.9117 15.0286 13.4149 14.6623 13.0486C14.296 12.6823 13.7993 12.4766 13.2812 12.4766H11.0234C10.5201 12.4768 10.0196 12.5532 9.53906 12.7031L6.19531 13.7891C6.13991 13.6408 6.04077 13.5128 5.91103 13.4221C5.78128 13.3315 5.62704 13.2823 5.46875 13.2812H2.34375C2.13655 13.2812 1.93784 13.3636 1.79132 13.5101C1.64481 13.6566 1.5625 13.8553 1.5625 14.0625V22.6562C1.5625 22.8634 1.64481 23.0622 1.79132 23.2087C1.93784 23.3552 2.13655 23.4375 2.34375 23.4375H5.46875C5.66189 23.4387 5.84861 23.3683 5.99289 23.2399C6.13716 23.1114 6.22876 22.9342 6.25 22.7422L10.7031 23.2109C11.1026 23.2549 11.5043 23.2758 11.9062 23.2734C12.9642 23.2716 14.0164 23.1191 15.0312 22.8203C15.2278 22.7654 15.3951 22.6357 15.4973 22.4591C15.5995 22.2824 15.6285 22.0728 15.5781 21.875C15.5201 21.6761 15.3855 21.5084 15.2038 21.4087C15.0221 21.3091 14.8083 21.2857 14.6094 21.3437C13.3917 21.705 12.114 21.8192 10.8516 21.6797L6.25 21.1719V15.4141L10.0156 14.2188C10.3416 14.1156 10.6815 14.0629 11.0234 14.0625H13.2812C13.3849 14.0625 13.4842 14.1037 13.5575 14.1769C13.6307 14.2502 13.6719 14.3495 13.6719 14.4531C13.6719 14.5567 13.6307 14.6561 13.5575 14.7293C13.4842 14.8026 13.3849 14.8437 13.2812 14.8437H12.5859C12.0527 14.8089 11.5268 14.9825 11.119 15.3277C10.7111 15.673 10.4532 16.1631 10.3995 16.6947C10.3459 17.2264 10.5006 17.7581 10.8312 18.1779C11.1618 18.5977 11.6425 18.8728 12.1719 18.9453L14.5625 19.3984C15.0776 19.5079 15.6099 19.5079 16.125 19.3984L21.0781 18.2109C21.2119 18.1783 21.3524 18.1861 21.4818 18.2334C21.6111 18.2807 21.7235 18.3653 21.8047 18.4766C21.8551 18.5469 21.8877 18.6284 21.9 18.7141C21.9122 18.7997 21.9036 18.8871 21.875 18.9687C21.8409 19.0641 21.7839 19.1496 21.709 19.2178C21.634 19.2859 21.5435 19.3345 21.4453 19.3594L17.9688 20.3125C17.8662 20.3269 17.7674 20.3613 17.6781 20.4138C17.5888 20.4664 17.5107 20.536 17.4484 20.6187C17.386 20.7014 17.3405 20.7955 17.3145 20.8958C17.2885 20.9961 17.2825 21.1005 17.2969 21.2031C17.3112 21.3057 17.3457 21.4045 17.3982 21.4938C17.4507 21.5831 17.5203 21.6611 17.603 21.7235C17.6857 21.7859 17.7799 21.8314 17.8802 21.8574C17.9805 21.8834 18.0849 21.8894 18.1875 21.875C18.26 21.8864 18.3338 21.8864 18.4062 21.875L21.875 20.8203C22.2091 20.7239 22.5157 20.5498 22.7696 20.3121C23.0236 20.0745 23.2176 19.7801 23.3359 19.4531C23.4445 19.136 23.4756 18.7975 23.4267 18.4659C23.3777 18.1343 23.2502 17.8192 23.0547 17.5469ZM4.6875 21.875H3.125V14.8437H4.6875V21.875Z" fill="#B7C6EB"/>
<path d="M4.46095 5.46875L7.03126 6.19531L6.31251 8.34375C6.27906 8.44492 6.26665 8.55186 6.27605 8.658C6.28546 8.76414 6.31648 8.86723 6.3672 8.96094C6.41448 9.05523 6.48152 9.13823 6.56376 9.20429C6.64599 9.27034 6.74149 9.31791 6.84376 9.34375L12.3125 10.9063C12.45 10.948 12.5969 10.948 12.7344 10.9063L18.2031 9.34375C18.4062 9.2847 18.5775 9.1474 18.6793 8.96206C18.7811 8.77673 18.8052 8.55853 18.7461 8.35547C18.6871 8.15241 18.5498 7.98113 18.3644 7.87931C18.1791 7.77748 17.9609 7.75345 17.7578 7.8125L12.5 9.375L8.03126 8.10156L8.50001 6.67969L12.2734 7.8125C12.4216 7.85422 12.5784 7.85422 12.7266 7.8125L19.5313 5.73438V9.375C19.5313 9.5822 19.6136 9.78092 19.7601 9.92743C19.9066 10.0739 20.1053 10.1563 20.3125 10.1563C20.5197 10.1563 20.7184 10.0739 20.8649 9.92743C21.0115 9.78092 21.0938 9.5822 21.0938 9.375V4.6875C21.0914 4.59135 21.0729 4.49628 21.0391 4.40625L20.9922 4.32813C20.9658 4.27158 20.9316 4.21899 20.8906 4.17188L20.8203 4.10156C20.7758 4.06313 20.7257 4.03154 20.6719 4.00781L20.5781 3.96094H20.5391L12.7266 1.61719C12.5781 1.57812 12.422 1.57812 12.2734 1.61719L4.46095 3.96094C4.29545 4.00592 4.14934 4.1041 4.04518 4.24035C3.94102 4.3766 3.88458 4.54334 3.88458 4.71485C3.88458 4.88635 3.94102 5.05309 4.04518 5.18934C4.14934 5.32559 4.29545 5.42378 4.46095 5.46875ZM12.5 3.125L17.5938 4.6875L12.5 6.25L7.40626 4.6875L12.5 3.125Z" fill="#B7C6EB"/>
</svg>
