<svg width="25" height="25" viewBox="0 0 25 25" fill="none" xmlns="http://www.w3.org/2000/svg">
<path d="M21.875 21.875H13.2812V19.2344L14.8047 18.4532C15.4675 18.1258 16.1983 17.9598 16.9375 17.9688C17.4864 17.9675 18.0216 18.1409 18.4654 18.4639C18.9092 18.787 19.2387 19.2429 19.4062 19.7657C19.4684 19.9635 19.6066 20.1286 19.7905 20.2246C19.9744 20.3205 20.1888 20.3395 20.3867 20.2774C20.5846 20.2152 20.7497 20.077 20.8456 19.8931C20.9416 19.7093 20.9606 19.4948 20.8984 19.2969C20.6322 18.456 20.1043 17.7222 19.3919 17.2022C18.6794 16.6823 17.8195 16.4034 16.9375 16.4063C16.692 16.4061 16.4467 16.4217 16.2031 16.4532L15.625 14.75C16.3477 14.2891 16.9417 13.6525 17.3516 12.8997C17.7615 12.1469 17.9738 11.3025 17.9688 10.4453V7.81253C17.9762 7.74503 17.9762 7.67691 17.9688 7.60941L19.5312 6.77347V9.37503C19.5312 9.58223 19.6136 9.78095 19.7601 9.92746C19.9066 10.074 20.1053 10.1563 20.3125 10.1563C20.5197 10.1563 20.7184 10.074 20.8649 9.92746C21.0114 9.78095 21.0938 9.58223 21.0938 9.37503V5.46878C21.0876 5.3858 21.0691 5.30419 21.0391 5.2266C21.0215 5.18088 21.0006 5.13649 20.9766 5.09378L20.9297 5.02347C20.8332 4.89516 20.6995 4.79968 20.5469 4.75003L13.3672 1.73441C13.0928 1.61838 12.7979 1.55859 12.5 1.55859C12.2021 1.55859 11.9072 1.61838 11.6328 1.73441L5.03906 4.49222C4.84512 4.57556 4.67876 4.71215 4.55926 4.88615C4.43975 5.06015 4.37198 5.26444 4.36381 5.47537C4.35563 5.6863 4.40738 5.89524 4.51306 6.07796C4.61874 6.26069 4.77403 6.40974 4.96094 6.50785L11.4609 9.89847C11.7812 10.0675 12.1379 10.1558 12.5 10.1558C12.8621 10.1558 13.2188 10.0675 13.5391 9.89847L16.4062 8.40628V10.4453C16.4147 11.1779 16.193 11.8946 15.7725 12.4944C15.3521 13.0943 14.754 13.5471 14.0625 13.7891C13.5577 13.9557 13.0314 14.0478 12.5 14.0625C11.9211 14.0643 11.3467 13.961 10.8047 13.7578C10.1444 13.4987 9.57891 13.0442 9.18383 12.455C8.78875 11.8659 8.58288 11.1702 8.59375 10.461C8.59375 10.2538 8.51144 10.0551 8.36493 9.90854C8.21841 9.76203 8.0197 9.67972 7.8125 9.67972C7.6053 9.67972 7.40659 9.76203 7.26007 9.90854C7.11356 10.0551 7.03125 10.2538 7.03125 10.461C7.0291 11.3176 7.24269 12.1609 7.65229 12.9132C8.0619 13.6655 8.65435 14.3026 9.375 14.7657L8.8125 16.4532C8.56897 16.4217 8.32367 16.4061 8.07812 16.4063C7.53129 16.4053 6.98961 16.5119 6.48401 16.7203C5.97841 16.9286 5.51879 17.2344 5.1314 17.6204C4.744 18.0063 4.43642 18.4648 4.22621 18.9696C4.016 19.4744 3.90727 20.0157 3.90625 20.5625V21.875H3.125C2.9178 21.875 2.71909 21.9573 2.57257 22.1039C2.42606 22.2504 2.34375 22.4491 2.34375 22.6563C2.34375 22.8635 2.42606 23.0622 2.57257 23.2087C2.71909 23.3552 2.9178 23.4375 3.125 23.4375H21.875C22.0822 23.4375 22.2809 23.3552 22.4274 23.2087C22.5739 23.0622 22.6562 22.8635 22.6562 22.6563C22.6562 22.4491 22.5739 22.2504 22.4274 22.1039C22.2809 21.9573 22.0822 21.875 21.875 21.875ZM12.8203 8.51566C12.7222 8.56969 12.612 8.59802 12.5 8.59802C12.388 8.59802 12.2778 8.56969 12.1797 8.51566L6.52344 5.56253L12.2344 3.21878C12.4045 3.14847 12.5955 3.14847 12.7656 3.21878L18.4766 5.6016L12.8203 8.51566ZM10.7969 15.3985C11.3522 15.5481 11.9248 15.6243 12.5 15.625C13.0729 15.6137 13.6422 15.5323 14.1953 15.3828L14.6797 16.8282C14.4823 16.9001 14.2892 16.9836 14.1016 17.0782L12.5 17.8594L10.8984 17.0782C10.7108 16.9836 10.5177 16.9001 10.3203 16.8282L10.7969 15.3985ZM5.46875 20.5625C5.46875 19.8746 5.74202 19.2149 6.22844 18.7285C6.71486 18.2421 7.37459 17.9688 8.0625 17.9688C8.80358 17.9671 9.53451 18.1411 10.1953 18.4766L11.7188 19.2578V21.875H5.46875V20.5625Z" fill="#B7C6EB"/>
</svg>
