<svg width="25" height="25" viewBox="0 0 25 25" fill="none" xmlns="http://www.w3.org/2000/svg">
<path d="M21.2188 2.34375H5.34375C4.75593 2.34581 4.19278 2.58023 3.77713 2.99588C3.36148 3.41153 3.12706 3.97468 3.125 4.5625V8.59375C3.125 8.80095 3.20731 8.99966 3.35382 9.14618C3.50034 9.29269 3.69905 9.375 3.90625 9.375C4.11345 9.375 4.31216 9.29269 4.45868 9.14618C4.60519 8.99966 4.6875 8.80095 4.6875 8.59375V4.5625C4.68953 4.38908 4.75932 4.22334 4.88195 4.1007C5.00459 3.97807 5.17033 3.90828 5.34375 3.90625H21.2188C21.3922 3.90828 21.5579 3.97807 21.6805 4.1007C21.8032 4.22334 21.873 4.38908 21.875 4.5625V15.75C21.873 15.9234 21.8032 16.0892 21.6805 16.2118C21.5579 16.3344 21.3922 16.4042 21.2188 16.4062H20.3125V15.6953C20.3104 15.2629 20.1378 14.8488 19.832 14.543C19.5262 14.2372 19.1121 14.0646 18.6797 14.0625H15.6953C15.2629 14.0646 14.8488 14.2372 14.543 14.543C14.2372 14.8488 14.0646 15.2629 14.0625 15.6953V16.4062H12.5C12.2928 16.4062 12.0941 16.4886 11.9476 16.6351C11.8011 16.7816 11.7188 16.9803 11.7188 17.1875C11.7188 17.3947 11.8011 17.5934 11.9476 17.7399C12.0941 17.8864 12.2928 17.9688 12.5 17.9688H21.2188C21.8066 17.9667 22.3697 17.7323 22.7854 17.3166C23.201 16.901 23.4354 16.3378 23.4375 15.75V4.5625C23.4354 3.97468 23.201 3.41153 22.7854 2.99588C22.3697 2.58023 21.8066 2.34581 21.2188 2.34375ZM15.625 16.4062V15.6953C15.625 15.6767 15.6324 15.6588 15.6456 15.6456C15.6588 15.6324 15.6767 15.625 15.6953 15.625H18.6797C18.6983 15.625 18.7162 15.6324 18.7294 15.6456C18.7426 15.6588 18.75 15.6767 18.75 15.6953V16.4062H15.625Z" fill="#B7C6EB"/>
<path d="M9.375 12.5C9.375 11.8819 9.19172 11.2777 8.84834 10.7638C8.50496 10.2499 8.01691 9.8494 7.44589 9.61288C6.87487 9.37635 6.24654 9.31447 5.64034 9.43505C5.03415 9.55563 4.47733 9.85325 4.04029 10.2903C3.60325 10.7273 3.30563 11.2842 3.18505 11.8903C3.06447 12.4965 3.12635 13.1249 3.36288 13.6959C3.5994 14.2669 3.99994 14.755 4.51384 15.0983C5.02775 15.4417 5.63194 15.625 6.25 15.625C7.0788 15.625 7.87366 15.2958 8.45971 14.7097C9.04576 14.1237 9.375 13.3288 9.375 12.5ZM4.6875 12.5C4.6875 12.191 4.77914 11.8889 4.95083 11.6319C5.12252 11.375 5.36655 11.1747 5.65206 11.0564C5.93757 10.9382 6.25173 10.9072 6.55483 10.9675C6.85793 11.0278 7.13634 11.1766 7.35486 11.3951C7.57338 11.6137 7.72219 11.8921 7.78248 12.1952C7.84277 12.4983 7.81183 12.8124 7.69356 13.0979C7.5753 13.3835 7.37503 13.6275 7.11808 13.7992C6.86113 13.9709 6.55904 14.0625 6.25 14.0625C5.8356 14.0625 5.43817 13.8979 5.14515 13.6049C4.85212 13.3118 4.6875 12.9144 4.6875 12.5Z" fill="#B7C6EB"/>
<path d="M7.8125 16.4062H4.6875C3.8587 16.4062 3.06384 16.7355 2.47779 17.3215C1.89174 17.9076 1.5625 18.7024 1.5625 19.5312V21.0938C1.5625 21.301 1.64481 21.4997 1.79132 21.6462C1.93784 21.7927 2.13655 21.875 2.34375 21.875H10.1562C10.3635 21.875 10.5622 21.7927 10.7087 21.6462C10.8552 21.4997 10.9375 21.301 10.9375 21.0938V19.5312C10.9375 18.7024 10.6083 17.9076 10.0222 17.3215C9.43616 16.7355 8.6413 16.4062 7.8125 16.4062ZM9.375 20.3125H3.125V19.5312C3.125 19.1168 3.28962 18.7194 3.58265 18.4264C3.87567 18.1334 4.2731 17.9688 4.6875 17.9688H7.8125C8.2269 17.9688 8.62433 18.1334 8.91735 18.4264C9.21038 18.7194 9.375 19.1168 9.375 19.5312V20.3125Z" fill="#B7C6EB"/>
</svg>
